<svg width="17" height="17" viewBox="0 0 17 17" fill="none" xmlns="http://www.w3.org/2000/svg">
<path d="M12.0417 6.49541C11.909 6.36348 11.7294 6.28943 11.5423 6.28943C11.3552 6.28943 11.1756 6.36348 11.0429 6.49541L8.50001 9.00291L5.99251 6.49541C5.8598 6.36348 5.68027 6.28943 5.49314 6.28943C5.30601 6.28943 5.12648 6.36348 4.99376 6.49541C4.92737 6.56126 4.87468 6.6396 4.83872 6.72591C4.80276 6.81223 4.78424 6.90481 4.78424 6.99832C4.78424 7.09183 4.80276 7.18441 4.83872 7.27073C4.87468 7.35705 4.92737 7.43539 4.99376 7.50124L7.9971 10.5046C8.06295 10.571 8.14129 10.6237 8.22761 10.6596C8.31392 10.6956 8.40651 10.7141 8.50001 10.7141C8.59352 10.7141 8.68611 10.6956 8.77242 10.6596C8.85874 10.6237 8.93708 10.571 9.00293 10.5046L12.0417 7.50124C12.1081 7.43539 12.1608 7.35705 12.1967 7.27073C12.2327 7.18441 12.2512 7.09183 12.2512 6.99832C12.2512 6.90481 12.2327 6.81223 12.1967 6.72591C12.1608 6.6396 12.1081 6.56126 12.0417 6.49541Z" fill="black"/>
</svg>
